<svg width="72" height="72" viewBox="0 0 72 72" fill="none" xmlns="http://www.w3.org/2000/svg">
  <path d="M52 10H12C6.47715 10 2 14.4772 2 20V60C2 65.5228 6.47715 70 12 70H52C57.5228 70 62 65.5228 62 60V20C62 14.4772 57.5228 10 52 10Z" stroke="#FFC599" stroke-width="4" />
  <path d="M62 20C67.5228 20 72 15.5228 72 10C72 4.47715 67.5228 0 62 0C56.4772 0 52 4.47715 52 10C52 15.5228 56.4772 20 62 20Z" fill="#39FFA0" />
  <g clip-path="url(#clip0_708_60)">
    <path d="M45.5834 38.1667C45.5834 38.1667 47.4168 37.25 52.0001 37.25C49.2501 29.9167 42.3476 29.6206 42.3476 29.6206L41.4502 29.5133L43.7501 22.5833C34.5834 22.5833 31.8334 26.25 31.8334 26.25C32.0488 24.4542 32.9957 21.1937 34.5834 20.75C25.4167 20.75 24.5001 27.1667 24.5001 27.1667C24.5001 27.1667 21.7501 25.3333 21.7501 20.75C19.0001 22.5833 17.1667 24.4167 17.1667 29C17.1667 31.75 18.0834 33.5833 18.0834 33.5833L38.2501 60.1667H44.6668C44.6668 57.4167 42.8334 55.5833 42.8334 55.5833C45.5834 55.5833 48.3334 57.4167 48.3334 57.4167C48.3334 51 45.5834 47.3333 45.5834 47.3333C49.2501 47.3333 52.0001 49.1667 52.0001 49.1667C52.0001 41.8333 45.5834 38.1667 45.5834 38.1667Z" fill="#FBC02D" />
    <path d="M44.6667 43.6667C44.6667 49.3958 40.0834 54.6667 40.0834 54.6667V60.0567L25.4167 60.1667C25.4167 60.1667 25.4167 58.3333 25.4167 56.5C25.4167 56.5 16.2776 56.5 12.2717 54.6667C12.2626 54.6667 12.2626 54.6575 12.2534 54.6575L11.6667 52.8333H10.7501C10.4842 52.8333 8.91675 50.0833 8.91675 47.3333V46.4167C8.91675 45.5 9.57675 45.5 9.83341 45.5H15.3334V38.1667C15.3334 38.1667 13.6192 37.3417 13.5001 36.3333C13.5001 36.3333 14.3526 34.665 15.5626 33.5833C19.8067 29.8067 24.5001 29 30.0001 29C39.1667 29 44.6667 36.3333 44.6667 43.6667Z" fill="#673AB7" />
    <path d="M8.91667 47.3333C8.91667 47.3333 9.83333 46.006 9.83333 45.5C9.83333 44.994 9.42267 44.5833 8.91667 44.5833C8.41067 44.5833 8 45.0416 8 45.6146C8 46.7604 8.91667 47.3333 8.91667 47.3333Z" fill="#673AB7" />
    <path d="M20.8333 44.5834V35.4167L17.1666 36.3334L15.3333 39.0834C15.3333 39.0834 17.1666 39.2419 17.1666 40.9167C17.1666 41.8334 17.1666 44.5834 17.1666 44.5834H20.8333Z" fill="#512DA8" />
    <path d="M24.0811 47.3334H19C19 47.3334 19 45.6513 19 45.3011C19 44.4917 19 42.9499 19 40.9167C19 35.4167 25.4167 35.4167 25.4167 42.75C25.4167 46.4167 24.0811 47.3334 24.0811 47.3334Z" fill="white" />
    <path d="M20.7233 44.5833C21.7958 44.5833 22.6667 43.3513 22.6667 41.8333C22.6667 40.3153 21.7958 39.0833 20.7233 39.0833C19.2292 39.0833 19.055 40.5683 19.0458 40.7113C19.0183 41.0523 19 41.4263 19 41.8333C19 42.2403 19.0183 42.6033 19.0367 42.9333C19.0367 42.9333 19.1146 44.5833 20.7233 44.5833Z" fill="#AB47BC" />
    <path d="M20.8333 41.8333C20.8333 42.8481 20.375 43.6667 19.8067 43.6667C19.495 43.6667 19 43.3614 19 41.8333C19 40.3052 19.5042 40 19.8067 40C20.375 40 20.8333 40.8186 20.8333 41.8333Z" fill="black" />
    <path d="M21.7499 39.0833C21.5068 39.0833 21.2736 39.1799 21.1017 39.3518C20.9298 39.5237 20.8333 39.7569 20.8333 40C20.8333 40.2431 20.9298 40.4763 21.1017 40.6482C21.2736 40.8201 21.5068 40.9166 21.7499 40.9166C21.993 40.9166 22.2262 40.8201 22.3981 40.6482C22.57 40.4763 22.6666 40.2431 22.6666 40C22.6666 39.7569 22.57 39.5237 22.3981 39.3518C22.2262 39.1799 21.993 39.0833 21.7499 39.0833Z" fill="white" />
    <path d="M38.7083 40C38.3436 40 37.9938 40.1932 37.736 40.537C37.4781 40.8808 37.3333 41.3471 37.3333 41.8333C37.3333 42.3196 37.4781 42.7859 37.736 43.1297C37.9938 43.4735 38.3436 43.6667 38.7083 43.6667C39.0729 43.6667 39.4227 43.4735 39.6805 43.1297C39.9384 42.7859 40.0833 42.3196 40.0833 41.8333C40.0833 41.3471 39.9384 40.8808 39.6805 40.537C39.4227 40.1932 39.0729 40 38.7083 40ZM41.9166 42.75C40.9999 42.75 40.9999 43.5521 40.9999 43.8958C40.9999 44.3542 41.6874 45.5 41.9166 45.5C42.1458 45.5 42.8333 44.4688 42.8333 43.8958C42.8333 43.5521 42.8333 42.75 41.9166 42.75ZM39.1666 45.5C38.2499 45.5 38.2499 46.3021 38.2499 46.6458C38.2499 47.1042 38.9374 48.25 39.1666 48.25C39.3958 48.25 40.0833 47.2188 40.0833 46.6458C40.0833 46.3021 40.0833 45.5 39.1666 45.5Z" fill="#512DA8" />
    <path d="M29.0833 43.6667C25.4166 43.6667 24.4999 46.4167 21.7499 46.4167C19.4583 46.4167 18.9999 44.9271 18.9999 44.5834C18.2263 44.5834 17.1666 44.5834 17.1666 44.5834C17.1666 44.5834 17.1666 44.5834 15.3333 43.6667C15.3333 43.6667 12.5833 45.5 9.83325 45.5C9.83325 45.5 13.4999 49.1667 20.8333 49.1667C24.4999 49.1667 26.3333 47.3334 26.3333 47.3334C27.0043 47.8659 27.9145 48.25 29.0833 48.25C31.1082 48.25 32.7499 47.2243 32.7499 45.9584C32.7499 44.6924 31.1082 43.6667 29.0833 43.6667Z" fill="#764EBE" />
    <path d="M28.1667 51V52.8333C27.0392 52.8333 26.0126 52.6133 25.1876 52.2191C21.2551 54.3641 16.6259 54.6666 12.5834 54.6666H12.2717C12.2626 54.6666 12.2626 54.6575 12.2534 54.6575L11.6667 52.8333H12.5834C16.7359 52.8333 21.0809 52.54 24.7201 50.3766L25.2151 50.0833L25.6917 50.4041C26.2692 50.78 27.1676 51 28.1667 51ZM36.4167 52.8333C36.4167 52.8333 35.5001 56.5 29.0834 56.5V58.3333C30.0001 58.3333 36.4167 58.3333 36.4167 52.8333Z" fill="#4A148C" />
    <path d="M25.4167 56.5H29.0834V60.1667H25.4167V56.5Z" fill="#FBC02D" />
    <path d="M25.4167 56.5H29.0834V58.3333H25.4167V56.5Z" fill="#FF8F00" />
    <path d="M21.8663 37.25C18.9999 37.25 19.0513 39.0834 15.3333 39.0834C15.3333 39.0834 17.9155 34.5 21.6335 34.5C26.2819 34.5 29.9999 33.5834 29.9999 33.5834C29.9999 33.5834 29.0833 37.25 26.3333 37.25C25.1838 37.25 23.5603 37.25 21.8663 37.25Z" fill="#311B92" />
    <path d="M30 33.5834C30 33.5834 28.1667 35.4167 22.6667 35.4167C20.8333 35.4167 20.0413 35.9456 19.1329 36.535C18.032 37.25 16.7276 39.0834 15.3333 39.0834C14.5202 39.0834 13.5 37.4792 13.5 36.3517C14.4167 36.3517 15.3856 35.6138 16.0208 35.0729C17.3656 33.9271 19 32.6667 21.75 32.6667C26.3333 32.6667 30 33.5834 30 33.5834Z" fill="#7E57C2" />
    <path d="M52 18.0367C51.6425 18.0733 50.4508 18.6233 49.2408 19.7142C49.1675 19.7783 49.0942 19.8425 49.03 19.9158C48.645 20.2825 48.26 20.7133 47.9025 21.2083C47.875 21.245 47.8475 21.2817 47.8292 21.3183C47.49 21.7858 47.1967 22.3175 46.9492 22.9042C46.8208 23.2067 46.7108 23.5275 46.6192 23.8575C46.5458 24.1233 46.4817 24.4075 46.445 24.6917C46.4083 24.82 46.39 24.9483 46.3808 25.095C46.3533 25.3517 46.335 25.535 46.3075 25.6817C46.2342 26.3508 46.2617 26.14 46.0783 27.6708L46.0233 28.1567C46.005 28.3492 45.9683 28.5692 45.9133 28.835C45.8767 29.0275 45.8308 29.2475 45.7667 29.4767C45.6658 29.825 45.5467 30.2008 45.3725 30.6133C45.125 31.2183 44.7858 31.8783 44.3092 32.5658C44.1075 32.8683 43.8875 33.1708 43.6217 33.4825C43.3742 33.785 43.09 34.0875 42.7783 34.39C42.54 34.6283 42.2833 34.8667 42.0083 35.0958C41.2017 35.7833 40.23 36.4617 39.0658 37.0942C38.7908 37.25 37.6358 37.47 35.8758 36.7367C33.2358 35.6275 31.8975 33.5833 31.8425 32.0433C31.815 31.6858 31.8608 31.4017 31.9708 31.1542C32.2 30.5033 32.9975 29.8617 33.2083 29.6967C33.4925 29.4767 33.74 29.3025 34.0058 29.1283C34.07 29.0733 34.1342 29.0275 34.2075 28.9817C34.2258 28.9633 34.2533 28.945 34.2808 28.9267C34.4275 28.8258 34.9408 28.505 35.61 28.1017H35.6192C36.4533 27.5883 37.5258 26.965 38.3233 26.47C38.3325 26.4608 38.3508 26.4517 38.36 26.4517C38.9375 26.1125 39.3683 25.8375 39.4783 25.755C39.5517 25.6908 39.6158 25.645 39.6892 25.59C39.7533 25.535 39.8175 25.48 39.8725 25.425C40.3217 25.0125 40.6608 24.6092 40.9358 24.2242V24.1967C41.22 23.7842 41.4308 23.39 41.6142 22.9958C41.6783 22.8583 41.7425 22.7208 41.8067 22.5833C42.0175 22.1617 42.2192 21.7492 42.5125 21.3367C42.6133 21.19 42.7325 21.0342 42.87 20.8875C43.0717 20.64 43.31 20.4017 43.6033 20.1633C43.7225 20.0717 43.8508 19.98 43.9883 19.8792C44.3917 19.5858 44.8042 19.3475 45.2442 19.1367C45.2717 19.1275 45.2992 19.1183 45.3175 19.1C45.4733 19.0267 45.6292 18.9625 45.7942 18.9075C46.115 18.77 46.445 18.66 46.775 18.5592C47.0408 18.4767 47.3067 18.4125 47.5817 18.3483C48.3425 18.1833 49.1217 18.0825 49.8917 18.0367C50.6158 17.9817 51.3125 17.9908 52 18.0367Z" fill="#FF8F00" />
    <path d="M43.6217 33.4825C43.3742 33.785 43.09 34.0875 42.7784 34.39C42.54 34.6283 42.2834 34.8667 42.0084 35.0958C37.2784 34.2158 34.84 31.585 34.0059 29.1283C34.07 29.0733 34.1342 29.0275 34.2075 28.9817C34.2259 28.9633 34.2534 28.945 34.2809 28.9267C34.4275 28.8258 34.9409 28.505 35.61 28.1017C36.1234 30.3108 38.4609 32.9508 43.6217 33.4825ZM45.9134 28.835C45.8767 29.0275 45.8309 29.2475 45.7667 29.4767C45.6659 29.825 45.5467 30.2008 45.3725 30.6133C41.7334 30.0542 39.515 28.4317 38.36 26.4517C38.9375 26.1125 39.3684 25.8375 39.4784 25.755C39.5517 25.6908 39.6159 25.645 39.6892 25.59C39.7534 25.535 39.8175 25.48 39.8725 25.425C40.89 27.24 42.98 28.4317 45.9134 28.835ZM46.6192 23.8575C46.5459 24.1233 46.4817 24.4075 46.445 24.6917C46.4084 24.82 46.39 24.9483 46.3809 25.095C46.3534 25.3517 46.335 25.535 46.3075 25.6817C44.2542 25.0308 42.7967 23.8667 41.8067 22.5833C42.0175 22.1617 42.2192 21.7492 42.5125 21.3367C42.6134 21.19 42.7325 21.0342 42.87 20.8875C43.5759 22.0242 44.74 23.1883 46.6192 23.8575ZM49.03 19.9158C48.645 20.2825 48.26 20.7133 47.9025 21.2083C47.875 21.245 47.8475 21.2817 47.8292 21.3183C46.94 20.6675 46.28 19.8242 45.7942 18.9075C46.115 18.77 46.445 18.66 46.775 18.5592C47.0409 18.4767 47.3067 18.4125 47.5817 18.3483C47.93 18.935 48.4067 19.485 49.03 19.9158Z" fill="#FF6F00" />
  </g>
  <defs>
    <clipPath id="clip0_708_60">
      <rect width="44" height="44" fill="white" transform="translate(8 18)" />
    </clipPath>
  </defs>
</svg>
