<!--
 * Copyright (c) 2021, WSO2 Inc. (http://www.wso2.org) All Rights Reserved.
 *
 * WSO2 Inc. licenses this file to you under the Apache License,
 * Version 2.0 (the "License"); you may not use this file except
 * in compliance with the License.
 * You may obtain a copy of the License at
 *
 *     http://www.apache.org/licenses/LICENSE-2.0
 *
 * Unless required by applicable law or agreed to in writing,
 * software distributed under the License is distributed on an
 * "AS IS" BASIS, WITHOUT WARRANTIES OR CONDITIONS OF ANY
 * KIND, either express or implied. See the License for the
 * specific language governing permissions and limitations
 * under the License.
-->

<svg width="766" height="537" viewBox="0 0 766 537" fill="none" xmlns="http://www.w3.org/2000/svg">
    <g filter="url(#filter0_d_105:105)">
        <path d="M377.3 204.597C428.275 204.597 469.599 163.274 469.599 112.299C469.599 61.3235 428.275 20 377.3 20C326.324 20 285 61.3235 285 112.299C285 163.274 326.324 204.597 377.3 204.597Z"
              fill="white"/>
    </g>
    <g clip-path="url(#clip0_105:105)">
        <path d="M400.625 125.34C396.106 115.481 388.853 108.772 380.202 106.45C371.55 104.127 361.918 106.303 353.078 112.577C345.133 118.216 339.102 126.392 336.945 134.447C335.897 138.36 336.295 141.662 338.127 144.26C339.933 146.825 342.833 148.307 346.262 149.227C349.911 150.206 354.161 150.55 358.335 150.888C361.984 151.183 365.431 151.463 367.963 152.142C370.149 152.729 373.077 154.128 376.177 155.61C383.421 159.072 391.633 162.995 397.736 160.184C400.637 158.849 402.632 156.214 403.665 152.357C405.825 144.302 404.688 134.202 400.625 125.34Z"
              fill="#A660E4"/>
        <path d="M413.047 81.7074C411.568 77.4471 408.622 74.4403 404.963 73.4583C401.305 72.4762 397.251 73.6041 393.842 76.5522C390.71 79.2604 388.309 83.2772 387.081 87.8615C385.854 92.4458 385.925 97.1283 387.284 101.04C388.763 105.3 391.709 108.307 395.368 109.289C399.026 110.271 403.079 109.143 406.489 106.195C409.62 103.489 412.023 99.472 413.251 94.8862C414.479 90.3004 414.405 85.621 413.047 81.7074Z"
              fill="#A660E4"/>
        <path d="M383.341 73.7378C381.862 69.477 378.917 66.4682 375.258 65.4861C371.6 64.5041 367.546 65.6345 364.135 68.5824C361.003 71.2906 358.603 75.3074 357.375 79.8916C356.147 84.4759 356.219 89.1564 357.578 93.07C359.056 97.3303 362.003 100.337 365.661 101.319C369.32 102.301 373.373 101.173 376.782 98.2252C379.914 95.517 382.315 91.5007 383.543 86.9159C384.771 82.3311 384.7 77.6515 383.341 73.7378Z"
              fill="#A660E4"/>
        <path d="M430.111 116.432C430.024 112.816 428.564 109.813 426.002 107.977C424.935 107.236 423.731 106.718 422.46 106.452C421.189 106.187 419.877 106.18 418.604 106.432C414.871 107.094 411.301 109.572 408.811 113.231C406.82 116.075 405.76 119.468 405.777 122.941C405.865 126.558 407.324 129.561 409.887 131.396C410.774 132.031 411.768 132.499 412.822 132.78C414.28 133.161 415.804 133.217 417.285 132.943C421.018 132.281 424.587 129.803 427.078 126.145C429.069 123.3 430.129 119.906 430.111 116.432Z"
              fill="#A660E4"/>
        <path d="M352.046 98.0045C351.717 93.589 349.864 89.6561 346.963 87.2133C345.986 86.3572 344.848 85.7064 343.614 85.2997C342.381 84.8929 341.079 84.7386 339.785 84.8458C336.649 85.1514 333.885 87.0205 332.002 90.1083C330.251 93.1071 329.474 96.5755 329.777 100.036V100.036C330.106 104.451 331.958 108.384 334.859 110.827C336.005 111.806 337.352 112.521 338.805 112.921C339.858 113.206 340.953 113.298 342.038 113.193C345.175 112.887 347.938 111.018 349.822 107.93C351.571 104.932 352.348 101.464 352.046 98.0045V98.0045Z"
              fill="#A660E4"/>
    </g>
    <g filter="url(#filter1_d_105:105)">
        <path d="M635.3 490.597C686.275 490.597 727.599 449.274 727.599 398.299C727.599 347.324 686.275 306 635.3 306C584.324 306 543 347.324 543 398.299C543 449.274 584.324 490.597 635.3 490.597Z"
              fill="white"/>
    </g>
    <path d="M657.33 353.774L666.806 370.138L656.304 388.261H677.26L686.687 404.624H627.972L657.33 353.774Z"
          fill="#FF7300"/>
    <path d="M583.912 404.624L593.339 388.261H614.295L603.842 370.138L613.269 353.774L642.675 404.624H583.912Z"
          fill="#FF7300"/>
    <path d="M645.753 442.825L635.299 424.652L624.846 442.825H605.942L635.299 391.924L664.657 442.825H645.753Z"
          fill="black"/>
    <g filter="url(#filter2_d_105:105)">
        <path d="M120.3 490.597C171.275 490.597 212.599 449.274 212.599 398.299C212.599 347.324 171.275 306 120.3 306C69.324 306 28 347.324 28 398.299C28 449.274 69.324 490.597 120.3 490.597Z"
              fill="white"/>
    </g>
    <path d="M174.18 398.309C174.18 391.171 165.24 384.406 151.534 380.21C154.697 366.24 153.291 355.126 147.097 351.569C145.596 350.727 143.897 350.302 142.177 350.339V355.237C143.046 355.21 143.909 355.407 144.681 355.808C147.668 357.522 148.964 364.045 147.954 372.436C147.712 374.501 147.317 376.675 146.833 378.894C142.242 377.787 137.583 376.988 132.885 376.5C130.087 372.64 127.035 368.971 123.748 365.517C130.909 358.862 137.632 355.216 142.199 355.216V350.316C136.158 350.316 128.251 354.621 120.256 362.091C112.26 354.667 104.353 350.406 98.3123 350.406V355.304C102.859 355.304 109.602 358.928 116.763 365.54C113.492 368.981 110.461 372.643 107.691 376.5C102.985 376.983 98.3168 377.79 93.7215 378.917C93.2166 376.72 92.8427 374.59 92.5795 372.547C91.5469 364.156 92.8211 357.635 95.7866 355.898C96.5618 355.484 97.4344 355.287 98.3123 355.327V350.426C96.5779 350.389 94.8648 350.814 93.3482 351.656C87.1778 355.214 85.792 366.307 88.9775 380.232C75.3151 384.449 66.4193 391.193 66.4193 398.309C66.4193 405.448 75.3593 412.213 89.0654 416.409C85.9025 430.379 87.3084 441.493 93.5025 445.05C95.0101 445.895 96.7168 446.32 98.4445 446.28C104.485 446.28 112.392 441.975 120.388 434.505C128.383 441.929 136.29 446.19 142.331 446.19C144.065 446.227 145.778 445.803 147.295 444.96C153.465 441.402 154.851 430.31 151.666 416.384C165.284 412.189 174.18 405.423 174.18 398.307V398.309ZM145.582 383.659C144.769 386.492 143.758 389.414 142.616 392.335C141.716 390.578 140.771 388.82 139.737 387.063C138.726 385.306 137.65 383.593 136.574 381.921C139.693 382.385 142.704 382.956 145.582 383.659V383.659ZM135.522 407.051C133.808 410.017 132.051 412.828 130.228 415.442C126.955 415.727 123.638 415.881 120.3 415.881C116.983 415.881 113.666 415.727 110.415 415.464C108.592 412.85 106.82 410.068 105.1 407.117C103.43 404.24 101.907 401.326 100.531 398.376C101.893 395.433 103.431 392.489 105.078 389.612C106.791 386.646 108.548 383.835 110.371 381.221C113.644 380.936 116.961 380.782 120.3 380.782C123.616 380.782 126.933 380.936 130.184 381.2C132.007 383.813 133.779 386.596 135.5 389.546C137.169 392.423 138.692 395.337 140.068 398.287C138.685 401.231 137.169 404.174 135.522 407.051V407.051ZM142.618 404.196C143.804 407.139 144.814 410.083 145.649 412.937C142.769 413.64 139.74 414.233 136.599 414.694C137.675 413.003 138.751 411.268 139.762 409.489C140.773 407.732 141.716 405.953 142.616 404.196H142.618ZM120.345 427.633C118.19 425.396 116.152 423.05 114.239 420.604C116.216 420.692 118.236 420.758 120.279 420.758C122.344 420.758 124.387 420.715 126.385 420.604C124.5 423.054 122.483 425.401 120.343 427.633H120.345ZM104.001 414.694C100.882 414.231 97.8732 413.661 94.9957 412.959C95.8087 410.125 96.8191 407.204 97.9611 404.282C98.8615 406.039 99.8061 407.797 100.841 409.554C101.875 411.311 102.928 413.026 104.001 414.694ZM120.234 368.985C122.388 371.222 124.427 373.568 126.34 376.014C124.363 375.926 122.343 375.86 120.3 375.86C118.235 375.86 116.192 375.903 114.194 376.014C116.079 373.564 118.095 371.218 120.234 368.986V368.985ZM103.98 381.922C102.904 383.614 101.827 385.349 100.817 387.128C99.8066 388.885 98.8631 390.643 97.9617 392.4C96.7754 389.457 95.765 386.513 94.9304 383.658C97.81 382.978 100.839 382.384 103.98 381.923L103.98 381.922ZM84.1013 409.422C76.3255 406.106 71.2976 401.757 71.2976 398.308C71.2976 394.859 76.3275 390.489 84.1013 387.194C85.9905 386.381 88.055 385.656 90.1858 384.975C91.5296 389.54 93.1807 394.009 95.1279 398.352C93.2016 402.672 91.5725 407.12 90.2517 411.662C88.0771 410.983 86.0105 410.236 84.1013 409.424V409.422ZM95.9187 440.81C92.9317 439.097 91.6354 432.573 92.6458 424.182C92.8875 422.118 93.2829 419.943 93.7663 417.725C98.3573 418.831 103.017 419.631 107.714 420.119C110.512 423.979 113.565 427.648 116.851 431.101C109.691 437.756 102.968 441.402 98.4008 441.402C97.5372 441.412 96.6846 441.209 95.9187 440.81V440.81ZM148.02 424.073C149.053 432.464 147.778 438.985 144.813 440.722C144.038 441.136 143.165 441.334 142.287 441.293C137.741 441.293 130.997 437.669 123.836 431.058C127.107 427.617 130.137 423.955 132.906 420.099C137.613 419.616 142.281 418.809 146.876 417.682C147.369 419.791 147.751 421.925 148.019 424.074L148.02 424.073ZM156.477 409.422C154.587 410.235 152.523 410.96 150.392 411.641C149.048 407.075 147.397 402.606 145.45 398.264C147.376 393.943 149.005 389.496 150.326 384.954C152.501 385.634 154.565 386.382 156.497 387.194C164.272 390.511 169.3 394.86 169.3 398.308C169.278 401.757 164.248 406.128 156.472 409.423L156.477 409.422Z"
          fill="#61DAFB"/>
    <path d="M120.278 408.348C125.822 408.348 130.316 403.853 130.316 398.31C130.316 392.766 125.822 388.271 120.278 388.271C114.734 388.271 110.24 392.766 110.24 398.31C110.24 403.853 114.734 408.348 120.278 408.348Z"
          fill="#61DAFB"/>
    <line x1="290.414" y1="193.414" x2="190.414" y2="293.414" stroke="#AEAEAE" stroke-width="4" stroke-dasharray="8 8"/>
    <line x1="465.339" y1="190.514" x2="576.339" y2="290.514" stroke="#AEAEAE" stroke-width="4" stroke-dasharray="8 8"/>
    <line x1="523" y1="407" x2="234" y2="407" stroke="#AEAEAE" stroke-width="4" stroke-dasharray="8 8"/>
    <defs>
        <filter id="filter0_d_105:105" x="257" y="0" width="250.599" height="250.597" filterUnits="userSpaceOnUse"
                color-interpolation-filters="sRGB">
            <feFlood flood-opacity="0" result="BackgroundImageFix"/>
            <feColorMatrix in="SourceAlpha" type="matrix" values="0 0 0 0 0 0 0 0 0 0 0 0 0 0 0 0 0 0 127 0"
                           result="hardAlpha"/>
            <feOffset dx="5" dy="13"/>
            <feGaussianBlur stdDeviation="16.5"/>
            <feColorMatrix type="matrix" values="0 0 0 0 0 0 0 0 0 0 0 0 0 0 0 0 0 0 0.129 0"/>
            <feBlend mode="normal" in2="BackgroundImageFix" result="effect1_dropShadow_105:105"/>
            <feBlend mode="normal" in="SourceGraphic" in2="effect1_dropShadow_105:105" result="shape"/>
        </filter>
        <filter id="filter1_d_105:105" x="515" y="286" width="250.599" height="250.597" filterUnits="userSpaceOnUse"
                color-interpolation-filters="sRGB">
            <feFlood flood-opacity="0" result="BackgroundImageFix"/>
            <feColorMatrix in="SourceAlpha" type="matrix" values="0 0 0 0 0 0 0 0 0 0 0 0 0 0 0 0 0 0 127 0"
                           result="hardAlpha"/>
            <feOffset dx="5" dy="13"/>
            <feGaussianBlur stdDeviation="16.5"/>
            <feColorMatrix type="matrix" values="0 0 0 0 0 0 0 0 0 0 0 0 0 0 0 0 0 0 0.129 0"/>
            <feBlend mode="normal" in2="BackgroundImageFix" result="effect1_dropShadow_105:105"/>
            <feBlend mode="normal" in="SourceGraphic" in2="effect1_dropShadow_105:105" result="shape"/>
        </filter>
        <filter id="filter2_d_105:105" x="0" y="286" width="250.599" height="250.597" filterUnits="userSpaceOnUse"
                color-interpolation-filters="sRGB">
            <feFlood flood-opacity="0" result="BackgroundImageFix"/>
            <feColorMatrix in="SourceAlpha" type="matrix" values="0 0 0 0 0 0 0 0 0 0 0 0 0 0 0 0 0 0 127 0"
                           result="hardAlpha"/>
            <feOffset dx="5" dy="13"/>
            <feGaussianBlur stdDeviation="16.5"/>
            <feColorMatrix type="matrix" values="0 0 0 0 0 0 0 0 0 0 0 0 0 0 0 0 0 0 0.129 0"/>
            <feBlend mode="normal" in2="BackgroundImageFix" result="effect1_dropShadow_105:105"/>
            <feBlend mode="normal" in="SourceGraphic" in2="effect1_dropShadow_105:105" result="shape"/>
        </filter>
        <clipPath id="clip0_105:105">
            <rect width="106.482" height="101.818" fill="white" transform="translate(326.194 61.9709)"/>
        </clipPath>
    </defs>
</svg>
