<svg width="85" height="85" viewBox="0 0 85 85" fill="none" xmlns="http://www.w3.org/2000/svg">
<g clip-path="url(#clip0_721_2)">
<path d="M72.6041 38.9583C72.6041 38.9583 76.1458 37.1875 84.9999 37.1875C79.6874 23.0208 66.3531 22.4489 66.3531 22.4489L64.6194 22.2417L69.0624 8.85417C51.3541 8.85417 46.0416 15.9375 46.0416 15.9375C46.4577 12.4684 48.287 6.16958 51.3541 5.3125C33.6458 5.3125 31.8749 17.7083 31.8749 17.7083C31.8749 17.7083 26.5624 14.1667 26.5624 5.3125C21.2499 8.85417 17.7083 12.3958 17.7083 21.25C17.7083 26.5625 19.4791 30.1042 19.4791 30.1042L58.4374 81.4583H70.8333C70.8333 76.1458 67.2916 72.6042 67.2916 72.6042C72.6041 72.6042 77.9166 76.1458 77.9166 76.1458C77.9166 63.75 72.6041 56.6667 72.6041 56.6667C79.6874 56.6667 84.9999 60.2083 84.9999 60.2083C84.9999 46.0417 72.6041 38.9583 72.6041 38.9583Z" fill="#FBC02D"/>
<path d="M70.8333 49.5833C70.8333 60.651 61.9791 70.8333 61.9791 70.8333V81.2458L33.6458 81.4583C33.6458 81.4583 33.6458 77.9167 33.6458 74.375C33.6458 74.375 15.9905 74.375 8.252 70.8333C8.23429 70.8333 8.23429 70.8156 8.21659 70.8156L7.08325 67.2917H5.31242C4.79888 67.2917 1.77075 61.9792 1.77075 56.6667V54.8958C1.77075 53.125 3.04575 53.125 3.54159 53.125H14.1666V38.9583C14.1666 38.9583 10.8551 37.3646 10.6249 35.4167C10.6249 35.4167 12.2718 32.1937 14.6093 30.1042C22.8083 22.8083 31.8749 21.25 42.4999 21.25C60.2083 21.25 70.8333 35.4167 70.8333 49.5833Z" fill="#673AB7"/>
<path d="M1.77083 56.6666C1.77083 56.6666 3.54167 54.1025 3.54167 53.125C3.54167 52.1475 2.74833 51.3541 1.77083 51.3541C0.793333 51.3541 0 52.2395 0 53.3463C0 55.5599 1.77083 56.6666 1.77083 56.6666Z" fill="#673AB7"/>
<path d="M24.7917 51.3542V33.6459L17.7084 35.4167L14.1667 40.7292C14.1667 40.7292 17.7084 41.0356 17.7084 44.2709C17.7084 46.0417 17.7084 51.3542 17.7084 51.3542H24.7917Z" fill="#512DA8"/>
<path d="M31.0657 56.6666H21.25C21.25 56.6666 21.25 53.4171 21.25 52.7407C21.25 51.177 21.25 48.1985 21.25 44.2708C21.25 33.6458 33.6458 33.6458 33.6458 47.8124C33.6458 54.8958 31.0657 56.6666 31.0657 56.6666Z" fill="white"/>
<path d="M24.5792 51.3541C26.651 51.3541 28.3333 48.9741 28.3333 46.0416C28.3333 43.1091 26.651 40.7291 24.5792 40.7291C21.6927 40.7291 21.3563 43.5979 21.3385 43.8741C21.2854 44.5329 21.25 45.2554 21.25 46.0416C21.25 46.8279 21.2854 47.5291 21.3208 48.1666C21.3208 48.1666 21.4714 51.3541 24.5792 51.3541Z" fill="#AB47BC"/>
<path d="M24.7917 46.0417C24.7917 48.002 23.9063 49.5833 22.8083 49.5833C22.2063 49.5833 21.25 48.9936 21.25 46.0417C21.25 43.0897 22.224 42.5 22.8083 42.5C23.9063 42.5 24.7917 44.0814 24.7917 46.0417Z" fill="black"/>
<path d="M26.5626 40.7291C26.0929 40.7291 25.6425 40.9157 25.3104 41.2478C24.9783 41.5799 24.7917 42.0303 24.7917 42.5C24.7917 42.9696 24.9783 43.42 25.3104 43.7521C25.6425 44.0842 26.0929 44.2708 26.5626 44.2708C27.0322 44.2708 27.4827 44.0842 27.8147 43.7521C28.1468 43.42 28.3334 42.9696 28.3334 42.5C28.3334 42.0303 28.1468 41.5799 27.8147 41.2478C27.4827 40.9157 27.0322 40.7291 26.5626 40.7291Z" fill="white"/>
<path d="M59.323 42.5C58.6185 42.5 57.9429 42.8731 57.4447 43.5373C56.9466 44.2015 56.6667 45.1024 56.6667 46.0417C56.6667 46.981 56.9466 47.8818 57.4447 48.546C57.9429 49.2102 58.6185 49.5833 59.323 49.5833C60.0275 49.5833 60.7031 49.2102 61.2013 48.546C61.6994 47.8818 61.9792 46.981 61.9792 46.0417C61.9792 45.1024 61.6994 44.2015 61.2013 43.5373C60.7031 42.8731 60.0275 42.5 59.323 42.5ZM65.5209 47.8125C63.7501 47.8125 63.7501 49.362 63.7501 50.026C63.7501 50.9115 65.0782 53.125 65.5209 53.125C65.9636 53.125 67.2917 51.1328 67.2917 50.026C67.2917 49.362 67.2917 47.8125 65.5209 47.8125ZM60.2084 53.125C58.4376 53.125 58.4376 54.6745 58.4376 55.3385C58.4376 56.224 59.7657 58.4375 60.2084 58.4375C60.6511 58.4375 61.9792 56.4453 61.9792 55.3385C61.9792 54.6745 61.9792 53.125 60.2084 53.125Z" fill="#512DA8"/>
<path d="M40.7292 49.5834C33.6459 49.5834 31.8751 54.8959 26.5626 54.8959C22.1355 54.8959 21.2501 52.0183 21.2501 51.3542C19.7555 51.3542 17.7084 51.3542 17.7084 51.3542C17.7084 51.3542 17.7084 51.3542 14.1667 49.5834C14.1667 49.5834 8.85425 53.125 3.54175 53.125C3.54175 53.125 10.6251 60.2084 24.7917 60.2084C31.8751 60.2084 35.4167 56.6667 35.4167 56.6667C36.713 57.6956 38.4714 58.4375 40.7292 58.4375C44.641 58.4375 47.8126 56.456 47.8126 54.0105C47.8126 51.5649 44.641 49.5834 40.7292 49.5834Z" fill="#764EBE"/>
<path d="M38.9583 63.75V67.2916C36.7801 67.2916 34.7968 66.8666 33.203 66.1052C25.6062 70.2489 16.6635 70.8333 8.85409 70.8333H8.252C8.23429 70.8333 8.23429 70.8156 8.21659 70.8156L7.08325 67.2916H8.85409C16.876 67.2916 25.2697 66.725 32.2999 62.5458L33.2562 61.9791L34.177 62.5989C35.2926 63.325 37.028 63.75 38.9583 63.75ZM54.8958 67.2916C54.8958 67.2916 53.1249 74.375 40.7291 74.375V77.9166C42.4999 77.9166 54.8958 77.9166 54.8958 67.2916Z" fill="#4A148C"/>
<path d="M33.6458 74.375H40.7291V81.4583H33.6458V74.375Z" fill="#FBC02D"/>
<path d="M33.6458 74.375H40.7291V77.9167H33.6458V74.375Z" fill="#FF8F00"/>
<path d="M26.7875 37.1876C21.2501 37.1876 21.3492 40.7292 14.1667 40.7292C14.1667 40.7292 19.1552 31.8751 26.3377 31.8751C35.3176 31.8751 42.5001 30.1042 42.5001 30.1042C42.5001 30.1042 40.7292 37.1876 35.4167 37.1876C33.1961 37.1876 30.06 37.1876 26.7875 37.1876Z" fill="#311B92"/>
<path d="M42.5 30.1042C42.5 30.1042 38.9583 33.6459 28.3333 33.6459C24.7917 33.6459 23.2617 34.6676 21.5068 35.8063C19.38 37.1875 16.8601 40.7292 14.1667 40.7292C12.5959 40.7292 10.625 37.6302 10.625 35.4521C12.3958 35.4521 14.2676 34.0266 15.4948 32.9818C18.0926 30.7683 21.25 28.3334 26.5625 28.3334C35.4167 28.3334 42.5 30.1042 42.5 30.1042Z" fill="#7E57C2"/>
<path d="M85.0001 0.0708779C84.3095 0.141711 82.0074 1.20421 79.6699 3.3115C79.5282 3.43546 79.3866 3.55942 79.2626 3.70109C78.5189 4.40942 77.7751 5.24171 77.0845 6.19796C77.0314 6.2688 76.9782 6.33963 76.9428 6.41046C76.2876 7.31359 75.721 8.34067 75.2428 9.474C74.9949 10.0584 74.7824 10.6782 74.6053 11.3157C74.4637 11.8292 74.3397 12.3782 74.2689 12.9271C74.198 13.175 74.1626 13.423 74.1449 13.7063C74.0918 14.2021 74.0564 14.5563 74.0032 14.8396C73.8616 16.1323 73.9147 15.725 73.5605 18.6823L73.4543 19.6209C73.4189 19.9928 73.348 20.4178 73.2418 20.9313C73.171 21.3032 73.0824 21.7282 72.9585 22.1709C72.7637 22.8438 72.5335 23.5698 72.197 24.3667C71.7189 25.5355 71.0637 26.8105 70.1428 28.1386C69.7532 28.723 69.3282 29.3073 68.8147 29.9094C68.3366 30.4938 67.7876 31.0782 67.1855 31.6625C66.7251 32.123 66.2293 32.5834 65.698 33.0261C64.1397 34.3542 62.2626 35.6646 60.0137 36.8865C59.4824 37.1875 57.2512 37.6125 53.8512 36.1959C48.7512 34.0532 46.1657 30.1042 46.0595 27.1292C46.0064 26.4386 46.0949 25.8896 46.3074 25.4115C46.7501 24.1542 48.2907 22.9146 48.698 22.5959C49.247 22.1709 49.7251 21.8344 50.2387 21.498C50.3626 21.3917 50.4866 21.3032 50.6282 21.2146C50.6637 21.1792 50.7168 21.1438 50.7699 21.1084C51.0532 20.9136 52.0449 20.2938 53.3376 19.5146H53.3553C54.9668 18.523 57.0387 17.3188 58.5793 16.3625C58.597 16.3448 58.6324 16.3271 58.6501 16.3271C59.7657 15.6719 60.598 15.1407 60.8105 14.9813C60.9522 14.8573 61.0762 14.7688 61.2178 14.6625C61.3418 14.5563 61.4657 14.45 61.572 14.3438C62.4397 13.5469 63.0949 12.7678 63.6262 12.024V11.9709C64.1751 11.174 64.5824 10.4125 64.9366 9.65109C65.0605 9.38546 65.1845 9.11984 65.3085 8.85421C65.7157 8.03963 66.1053 7.24275 66.672 6.44588C66.8668 6.16255 67.097 5.8615 67.3626 5.57817C67.7522 5.10005 68.2126 4.63963 68.7793 4.17921C69.0095 4.00213 69.2574 3.82504 69.523 3.63025C70.3022 3.06359 71.0991 2.60317 71.9491 2.19588C72.0022 2.17817 72.0553 2.16046 72.0907 2.12504C72.3918 1.98338 72.6928 1.85942 73.0116 1.75317C73.6314 1.48754 74.2689 1.27504 74.9064 1.08025C75.4199 0.920878 75.9335 0.79692 76.4647 0.672961C77.9345 0.354211 79.4397 0.15942 80.9272 0.0708779C82.3262 -0.0353722 83.672 -0.0176638 85.0001 0.0708779Z" fill="#FF8F00"/>
<path d="M68.8148 29.9094C68.3367 30.4938 67.7877 31.0782 67.1856 31.6626C66.7252 32.123 66.2294 32.5834 65.6981 33.0261C56.5606 31.3261 51.8502 26.2438 50.2388 21.498C50.3627 21.3917 50.4867 21.3032 50.6284 21.2146C50.6638 21.1792 50.7169 21.1438 50.77 21.1084C51.0534 20.9136 52.045 20.2938 53.3377 19.5146C54.3294 23.7823 58.845 28.8823 68.8148 29.9094ZM73.2419 20.9313C73.1711 21.3032 73.0825 21.7282 72.9586 22.1709C72.7638 22.8438 72.5336 23.5698 72.1971 24.3667C65.1669 23.2865 60.8815 20.1521 58.6502 16.3271C59.7658 15.6719 60.5981 15.1407 60.8106 14.9813C60.9523 14.8573 61.0763 14.7688 61.2179 14.6626C61.3419 14.5563 61.4659 14.4501 61.5721 14.3438C63.5377 17.8501 67.5752 20.1521 73.2419 20.9313ZM74.6054 11.3157C74.4638 11.8292 74.3398 12.3782 74.269 12.9271C74.1981 13.1751 74.1627 13.423 74.145 13.7063C74.0919 14.2021 74.0565 14.5563 74.0034 14.8396C70.0367 13.5823 67.2211 11.3334 65.3086 8.85422C65.7159 8.03964 66.1054 7.24277 66.6721 6.44589C66.8669 6.16256 67.0971 5.86152 67.3627 5.57818C68.7263 7.77402 70.9752 10.023 74.6054 11.3157ZM79.2627 3.7011C78.519 4.40943 77.7752 5.24172 77.0846 6.19797C77.0315 6.26881 76.9784 6.33964 76.9429 6.41047C75.2252 5.15318 73.9502 3.52402 73.0117 1.75318C73.6315 1.48756 74.269 1.27506 74.9065 1.08027C75.42 0.92089 75.9336 0.796932 76.4648 0.672974C77.1377 1.80631 78.0586 2.86881 79.2627 3.7011Z" fill="#FF6F00"/>
</g>
<defs>
<clipPath id="clip0_721_2">
<rect width="85" height="85" fill="white"/>
</clipPath>
</defs>
</svg>
