<svg width="198" height="36" viewBox="0 0 198 36" fill="none" xmlns="http://www.w3.org/2000/svg">
  <g clip-path="url(#clip0_707_13)">
    <g clip-path="url(#clip1_707_13)">
      <path d="M31.7709 16.2917C31.7709 16.2917 32.9792 15.6875 36.0001 15.6875C34.1876 10.8542 29.6382 10.659 29.6382 10.659L29.0467 10.5883L30.5626 6.02083C24.5209 6.02083 22.7084 8.4375 22.7084 8.4375C22.8504 7.25394 23.4745 5.10492 24.5209 4.8125C18.4792 4.8125 17.8751 9.04167 17.8751 9.04167C17.8751 9.04167 16.0626 7.83333 16.0626 4.8125C14.2501 6.02083 13.0417 7.22917 13.0417 10.25C13.0417 12.0625 13.6459 13.2708 13.6459 13.2708L26.9376 30.7917H31.1667C31.1667 28.9792 29.9584 27.7708 29.9584 27.7708C31.7709 27.7708 33.5834 28.9792 33.5834 28.9792C33.5834 24.75 31.7709 22.3333 31.7709 22.3333C34.1876 22.3333 36.0001 23.5417 36.0001 23.5417C36.0001 18.7083 31.7709 16.2917 31.7709 16.2917Z" fill="#FBC02D" />
      <path d="M31.1667 19.9167C31.1667 23.6927 28.1459 27.1667 28.1459 27.1667V30.7192L18.4792 30.7917C18.4792 30.7917 18.4792 29.5833 18.4792 28.375C18.4792 28.375 12.4557 28.375 9.8155 27.1667C9.80946 27.1667 9.80946 27.1606 9.80341 27.1606L9.41675 25.9583H8.81258C8.63737 25.9583 7.60425 24.1458 7.60425 22.3333V21.7292C7.60425 21.125 8.03925 21.125 8.20841 21.125H11.8334V16.2917C11.8334 16.2917 10.7036 15.7479 10.6251 15.0833C10.6251 15.0833 11.187 13.9837 11.9845 13.2708C14.7817 10.7817 17.8751 10.25 21.5001 10.25C27.5417 10.25 31.1667 15.0833 31.1667 19.9167Z" fill="#673AB7" />
      <path d="M7.60417 22.3333C7.60417 22.3333 8.20833 21.4585 8.20833 21.125C8.20833 20.7915 7.93767 20.5208 7.60417 20.5208C7.27067 20.5208 7 20.8229 7 21.2005C7 21.9557 7.60417 22.3333 7.60417 22.3333Z" fill="#673AB7" />
      <path d="M15.4583 20.5209V14.4792L13.0416 15.0834L11.8333 16.8959C11.8333 16.8959 13.0416 17.0004 13.0416 18.1042C13.0416 18.7084 13.0416 20.5209 13.0416 20.5209H15.4583Z" fill="#512DA8" />
      <path d="M17.5989 22.3333H14.25C14.25 22.3333 14.25 21.2247 14.25 20.9939C14.25 20.4604 14.25 19.4442 14.25 18.1041C14.25 14.4791 18.4792 14.4791 18.4792 19.3125C18.4792 21.7291 17.5989 22.3333 17.5989 22.3333Z" fill="white" />
      <path d="M15.3858 20.5208C16.0927 20.5208 16.6667 19.7088 16.6667 18.7083C16.6667 17.7078 16.0927 16.8958 15.3858 16.8958C14.401 16.8958 14.2863 17.8746 14.2802 17.9688C14.2621 18.1936 14.25 18.4401 14.25 18.7083C14.25 18.9766 14.2621 19.2158 14.2742 19.4333C14.2742 19.4333 14.3255 20.5208 15.3858 20.5208Z" fill="#AB47BC" />
      <path d="M15.4583 18.7083C15.4583 19.3771 15.1563 19.9167 14.7817 19.9167C14.5763 19.9167 14.25 19.7155 14.25 18.7083C14.25 17.7012 14.5823 17.5 14.7817 17.5C15.1563 17.5 15.4583 18.0395 15.4583 18.7083Z" fill="black" />
      <path d="M16.0624 16.8958C15.9022 16.8958 15.7485 16.9595 15.6352 17.0728C15.5219 17.1861 15.4583 17.3397 15.4583 17.5C15.4583 17.6602 15.5219 17.8139 15.6352 17.9272C15.7485 18.0405 15.9022 18.1041 16.0624 18.1041C16.2227 18.1041 16.3763 18.0405 16.4896 17.9272C16.6029 17.8139 16.6666 17.6602 16.6666 17.5C16.6666 17.3397 16.6029 17.1861 16.4896 17.0728C16.3763 16.9595 16.2227 16.8958 16.0624 16.8958Z" fill="white" />
      <path d="M27.2395 17.5C26.9991 17.5 26.7686 17.6273 26.5987 17.8539C26.4287 18.0805 26.3333 18.3879 26.3333 18.7083C26.3333 19.0288 26.4287 19.3361 26.5987 19.5628C26.7686 19.7894 26.9991 19.9167 27.2395 19.9167C27.4799 19.9167 27.7104 19.7894 27.8803 19.5628C28.0503 19.3361 28.1458 19.0288 28.1458 18.7083C28.1458 18.3879 28.0503 18.0805 27.8803 17.8539C27.7104 17.6273 27.4799 17.5 27.2395 17.5ZM29.3541 19.3125C28.7499 19.3125 28.7499 19.8411 28.7499 20.0677C28.7499 20.3698 29.203 21.125 29.3541 21.125C29.5051 21.125 29.9583 20.4453 29.9583 20.0677C29.9583 19.8411 29.9583 19.3125 29.3541 19.3125ZM27.5416 21.125C26.9374 21.125 26.9374 21.6536 26.9374 21.8802C26.9374 22.1823 27.3905 22.9375 27.5416 22.9375C27.6926 22.9375 28.1458 22.2578 28.1458 21.8802C28.1458 21.6536 28.1458 21.125 27.5416 21.125Z" fill="#512DA8" />
      <path d="M20.8958 19.9167C18.4791 19.9167 17.8749 21.7292 16.0624 21.7292C14.552 21.7292 14.2499 20.7474 14.2499 20.5209C13.74 20.5209 13.0416 20.5209 13.0416 20.5209C13.0416 20.5209 13.0416 20.5209 11.8333 19.9167C11.8333 19.9167 10.0208 21.125 8.20825 21.125C8.20825 21.125 10.6249 23.5417 15.4583 23.5417C17.8749 23.5417 19.0833 22.3334 19.0833 22.3334C19.5255 22.6844 20.1254 22.9375 20.8958 22.9375C22.2304 22.9375 23.3124 22.2615 23.3124 21.4271C23.3124 20.5927 22.2304 19.9167 20.8958 19.9167Z" fill="#764EBE" />
      <path d="M20.2917 24.75V25.9583C19.5486 25.9583 18.872 25.8133 18.3282 25.5535C15.7363 26.9673 12.6853 27.1666 10.0209 27.1666H9.8155C9.80946 27.1666 9.80946 27.1606 9.80341 27.1606L9.41675 25.9583H10.0209C12.7578 25.9583 15.6215 25.765 18.0201 24.3391L18.3463 24.1458L18.6605 24.3573C19.0411 24.605 19.6332 24.75 20.2917 24.75ZM25.7292 25.9583C25.7292 25.9583 25.1251 28.375 20.8959 28.375V29.5833C21.5001 29.5833 25.7292 29.5833 25.7292 25.9583Z" fill="#4A148C" />
      <path d="M18.4792 28.375H20.8959V30.7917H18.4792V28.375Z" fill="#FBC02D" />
      <path d="M18.4792 28.375H20.8959V29.5833H18.4792V28.375Z" fill="#FF8F00" />
      <path d="M16.1391 15.6875C14.2499 15.6875 14.2838 16.8959 11.8333 16.8959C11.8333 16.8959 13.5352 13.875 15.9857 13.875C19.0494 13.875 21.4999 13.2709 21.4999 13.2709C21.4999 13.2709 20.8958 15.6875 19.0833 15.6875C18.3256 15.6875 17.2556 15.6875 16.1391 15.6875Z" fill="#311B92" />
      <path d="M21.5 13.2709C21.5 13.2709 20.2917 14.4792 16.6667 14.4792C15.4583 14.4792 14.9363 14.8278 14.3376 15.2163C13.612 15.6875 12.7523 16.8959 11.8333 16.8959C11.2974 16.8959 10.625 15.8386 10.625 15.0954C11.2292 15.0954 11.8678 14.6091 12.2865 14.2526C13.1728 13.4974 14.25 12.6667 16.0625 12.6667C19.0833 12.6667 21.5 13.2709 21.5 13.2709Z" fill="#7E57C2" />
      <path d="M36 3.02412C35.7644 3.04829 34.979 3.41079 34.1815 4.12974C34.1331 4.17204 34.0848 4.21433 34.0425 4.26266C33.7887 4.50433 33.535 4.78829 33.2994 5.11454C33.2812 5.1387 33.2631 5.16287 33.251 5.18704C33.0275 5.49516 32.8342 5.84558 32.671 6.23224C32.5865 6.43162 32.514 6.64308 32.4535 6.86058C32.4052 7.03579 32.3629 7.22308 32.3387 7.41037C32.3146 7.49495 32.3025 7.57954 32.2964 7.6762C32.2783 7.84537 32.2662 7.9662 32.2481 8.06287C32.1998 8.50391 32.2179 8.36495 32.0971 9.37391L32.0608 9.69412C32.0487 9.82099 32.0246 9.96599 31.9883 10.1412C31.9642 10.2681 31.934 10.4131 31.8917 10.5641C31.8252 10.7937 31.7467 11.0414 31.6319 11.3133C31.4687 11.712 31.2452 12.147 30.931 12.6002C30.7981 12.7995 30.6531 12.9989 30.4779 13.2043C30.3148 13.4037 30.1275 13.6031 29.9221 13.8025C29.765 13.9595 29.5958 14.1166 29.4146 14.2677C28.8829 14.7208 28.2425 15.1679 27.4752 15.5847C27.2939 15.6875 26.5327 15.8325 25.3727 15.3491C23.6327 14.6181 22.7506 13.2708 22.7144 12.2558C22.6962 12.0202 22.7264 11.8329 22.7989 11.6697C22.95 11.2408 23.4756 10.8179 23.6146 10.7091C23.8019 10.5641 23.965 10.4493 24.1402 10.3345C24.1825 10.2983 24.2248 10.2681 24.2731 10.2379C24.2852 10.2258 24.3033 10.2137 24.3215 10.2016C24.4181 10.1352 24.7565 9.9237 25.1975 9.65787H25.2035C25.7533 9.31954 26.4602 8.9087 26.9858 8.58245C26.9919 8.57641 27.0039 8.57037 27.01 8.57037C27.3906 8.34683 27.6746 8.16558 27.7471 8.1112C27.7954 8.06891 27.8377 8.0387 27.886 8.00245C27.9283 7.9662 27.9706 7.92995 28.0069 7.8937C28.3029 7.62183 28.5265 7.35599 28.7077 7.10224V7.08412C28.895 6.81224 29.0339 6.55245 29.1548 6.29266C29.1971 6.20204 29.2394 6.11141 29.2817 6.02079C29.4206 5.74287 29.5535 5.47099 29.7469 5.19912C29.8133 5.10245 29.8919 4.99974 29.9825 4.90308C30.1154 4.73995 30.2725 4.58287 30.4658 4.42579C30.5444 4.36537 30.6289 4.30495 30.7196 4.23849C30.9854 4.04516 31.2573 3.88808 31.5473 3.74912C31.5654 3.74308 31.5835 3.73704 31.5956 3.72495C31.6983 3.67662 31.801 3.63433 31.9098 3.59808C32.1212 3.50745 32.3387 3.43495 32.5562 3.36849C32.7314 3.31412 32.9067 3.27183 33.0879 3.22954C33.5894 3.12079 34.1029 3.05433 34.6104 3.02412C35.0877 2.98787 35.5469 2.99391 36 3.02412Z" fill="#FF8F00" />
      <path d="M30.4778 13.2043C30.3147 13.4037 30.1274 13.603 29.922 13.8024C29.7649 13.9595 29.5958 14.1166 29.4145 14.2676C26.297 13.6876 24.6899 11.9537 24.1401 10.3345C24.1824 10.2982 24.2247 10.268 24.2731 10.2378C24.2851 10.2257 24.3033 10.2137 24.3214 10.2016C24.4181 10.1351 24.7564 9.92366 25.1974 9.65783C25.5358 11.1139 27.0764 12.8539 30.4778 13.2043ZM31.9883 10.1412C31.9641 10.268 31.9339 10.413 31.8916 10.5641C31.8251 10.7937 31.7466 11.0414 31.6318 11.3132C29.2333 10.9447 27.7712 9.87533 27.0099 8.57033C27.3906 8.34678 27.6745 8.16553 27.747 8.11116C27.7953 8.06887 27.8376 8.03866 27.886 8.00241C27.9283 7.96616 27.9706 7.92991 28.0068 7.89366C28.6774 9.08991 30.0549 9.87532 31.9883 10.1412ZM32.4535 6.86053C32.4051 7.03574 32.3628 7.22303 32.3387 7.41033C32.3145 7.49491 32.3024 7.57949 32.2964 7.67616C32.2783 7.84533 32.2662 7.96616 32.2481 8.06283C30.8947 7.63387 29.9341 6.86658 29.2816 6.02074C29.4206 5.74283 29.5535 5.47095 29.7468 5.19908C29.8133 5.10241 29.8918 4.9997 29.9824 4.90303C30.4476 5.6522 31.2149 6.41949 32.4535 6.86053ZM34.0424 4.26262C33.7887 4.50428 33.5349 4.78824 33.2993 5.11449C33.2812 5.13866 33.2631 5.16283 33.251 5.18699C32.6649 4.75803 32.2299 4.2022 31.9097 3.59803C32.1212 3.50741 32.3387 3.43491 32.5562 3.36845C32.7314 3.31408 32.9066 3.27178 33.0878 3.22949C33.3174 3.61616 33.6316 3.97866 34.0424 4.26262Z" fill="#FF6F00" />
    </g>
    <path d="M49.288 28.32C48.1787 28.32 47.1973 28.1387 46.344 27.776C45.512 27.392 44.8187 26.8587 44.264 26.176C43.7093 25.4933 43.2827 24.6933 42.984 23.776C42.6853 22.8373 42.5147 21.8133 42.472 20.704C42.4507 20.32 42.44 19.9787 42.44 19.68C42.44 19.36 42.4507 19.008 42.472 18.624C42.5147 17.5573 42.6747 16.5653 42.952 15.648C43.2507 14.7307 43.6773 13.9307 44.232 13.248C44.808 12.544 45.512 12 46.344 11.616C47.1973 11.232 48.1787 11.04 49.288 11.04C50.44 11.04 51.4107 11.2427 52.2 11.648C53.0107 12.032 53.6827 12.5333 54.216 13.152V6.048C54.216 5.83467 54.28 5.65333 54.408 5.504C54.5573 5.35467 54.7493 5.28 54.984 5.28H57.704C57.9173 5.28 58.0987 5.35467 58.248 5.504C58.3973 5.65333 58.472 5.83467 58.472 6.048V27.232C58.472 27.4453 58.3973 27.6267 58.248 27.776C58.0987 27.9253 57.9173 28 57.704 28H55.176C54.9413 28 54.7493 27.9253 54.6 27.776C54.472 27.6267 54.408 27.4453 54.408 27.232V26.048C53.8747 26.7093 53.192 27.2533 52.36 27.68C51.5493 28.1067 50.5253 28.32 49.288 28.32ZM50.472 24.896C51.368 24.896 52.0827 24.6933 52.616 24.288C53.1493 23.8827 53.544 23.3707 53.8 22.752C54.056 22.112 54.1947 21.4613 54.216 20.8C54.2373 20.416 54.248 20.0107 54.248 19.584C54.248 19.136 54.2373 18.72 54.216 18.336C54.1947 17.696 54.0453 17.088 53.768 16.512C53.4907 15.9147 53.0853 15.424 52.552 15.04C52.0187 14.656 51.3253 14.464 50.472 14.464C49.576 14.464 48.8613 14.6667 48.328 15.072C47.816 15.456 47.4427 15.968 47.208 16.608C46.9733 17.248 46.8347 17.952 46.792 18.72C46.7707 19.36 46.7707 20 46.792 20.64C46.8347 21.408 46.9733 22.112 47.208 22.752C47.4427 23.392 47.816 23.9147 48.328 24.32C48.8613 24.704 49.576 24.896 50.472 24.896ZM63.505 28C63.2917 28 63.1103 27.9253 62.961 27.776C62.8117 27.6267 62.737 27.4453 62.737 27.232V12.16C62.737 11.9253 62.8117 11.7333 62.961 11.584C63.1103 11.4347 63.2917 11.36 63.505 11.36H66.097C66.3103 11.36 66.4917 11.4347 66.641 11.584C66.8117 11.7333 66.897 11.9253 66.897 12.16V13.472C67.3877 12.7893 68.017 12.2667 68.785 11.904C69.5743 11.5413 70.481 11.36 71.505 11.36H72.817C73.0517 11.36 73.233 11.4347 73.361 11.584C73.5103 11.7333 73.585 11.9147 73.585 12.128V14.432C73.585 14.6453 73.5103 14.8267 73.361 14.976C73.233 15.1253 73.0517 15.2 72.817 15.2H70.321C69.297 15.2 68.497 15.488 67.921 16.064C67.3663 16.64 67.089 17.4293 67.089 18.432V27.232C67.089 27.4453 67.0143 27.6267 66.865 27.776C66.7157 27.9253 66.5237 28 66.289 28H63.505ZM83.222 28.32C81.5153 28.32 80.0753 28.0213 78.902 27.424C77.75 26.8267 76.8647 25.984 76.246 24.896C75.6487 23.808 75.3073 22.5387 75.222 21.088C75.2007 20.704 75.19 20.2347 75.19 19.68C75.19 19.1253 75.2007 18.656 75.222 18.272C75.3073 16.8 75.6593 15.5307 76.278 14.464C76.918 13.376 77.814 12.5333 78.966 11.936C80.1393 11.3387 81.558 11.04 83.222 11.04C84.886 11.04 86.294 11.3387 87.446 11.936C88.6193 12.5333 89.5153 13.376 90.134 14.464C90.774 15.5307 91.1367 16.8 91.222 18.272C91.2433 18.656 91.254 19.1253 91.254 19.68C91.254 20.2347 91.2433 20.704 91.222 21.088C91.1367 22.5387 90.7847 23.808 90.166 24.896C89.5687 25.984 88.6833 26.8267 87.51 27.424C86.358 28.0213 84.9287 28.32 83.222 28.32ZM83.222 25.152C84.3527 25.152 85.2273 24.8 85.846 24.096C86.4647 23.3707 86.806 22.3147 86.87 20.928C86.8913 20.608 86.902 20.192 86.902 19.68C86.902 19.168 86.8913 18.752 86.87 18.432C86.806 17.0667 86.4647 16.0213 85.846 15.296C85.2273 14.5707 84.3527 14.208 83.222 14.208C82.0913 14.208 81.2167 14.5707 80.598 15.296C79.9793 16.0213 79.638 17.0667 79.574 18.432C79.5527 18.752 79.542 19.168 79.542 19.68C79.542 20.192 79.5527 20.608 79.574 20.928C79.638 22.3147 79.9793 23.3707 80.598 24.096C81.2167 24.8 82.0913 25.152 83.222 25.152ZM102.32 35.04C100.762 35.04 99.4822 34.8373 98.4795 34.432C97.4768 34.0267 96.6875 33.536 96.1115 32.96C95.5355 32.384 95.1195 31.808 94.8635 31.232C94.6288 30.6773 94.5008 30.24 94.4795 29.92C94.4582 29.7067 94.5222 29.5147 94.6715 29.344C94.8422 29.1947 95.0342 29.12 95.2475 29.12H98.0315C98.2448 29.12 98.4155 29.1627 98.5435 29.248C98.6715 29.3547 98.7782 29.536 98.8635 29.792C98.9915 30.0693 99.1622 30.368 99.3755 30.688C99.5888 31.008 99.9088 31.2747 100.336 31.488C100.784 31.7227 101.392 31.84 102.16 31.84C102.97 31.84 103.653 31.7227 104.208 31.488C104.762 31.2533 105.178 30.8587 105.456 30.304C105.754 29.7493 105.904 28.9813 105.904 28V25.824C105.392 26.4427 104.73 26.944 103.92 27.328C103.13 27.712 102.149 27.904 100.976 27.904C99.8235 27.904 98.8315 27.7227 97.9995 27.36C97.1675 26.976 96.4742 26.4533 95.9195 25.792C95.3648 25.1093 94.9382 24.3093 94.6395 23.392C94.3622 22.4747 94.2022 21.4613 94.1595 20.352C94.1382 19.776 94.1382 19.2 94.1595 18.624C94.2022 17.5573 94.3622 16.5653 94.6395 15.648C94.9168 14.7307 95.3328 13.9307 95.8875 13.248C96.4635 12.544 97.1675 12 97.9995 11.616C98.8315 11.232 99.8235 11.04 100.976 11.04C102.192 11.04 103.216 11.2747 104.048 11.744C104.88 12.192 105.562 12.7573 106.096 13.44V12.16C106.096 11.9253 106.17 11.7333 106.32 11.584C106.469 11.4347 106.65 11.36 106.864 11.36H109.456C109.669 11.36 109.85 11.4347 110 11.584C110.149 11.7333 110.224 11.9253 110.224 12.16L110.256 27.584C110.256 29.12 109.968 30.4427 109.392 31.552C108.816 32.6613 107.941 33.5147 106.768 34.112C105.616 34.7307 104.133 35.04 102.32 35.04ZM102.16 24.512C103.034 24.512 103.738 24.32 104.272 23.936C104.805 23.552 105.2 23.0507 105.456 22.432C105.712 21.8133 105.861 21.184 105.904 20.544C105.925 20.2667 105.936 19.9147 105.936 19.488C105.936 19.0613 105.925 18.72 105.904 18.464C105.861 17.8027 105.712 17.1733 105.456 16.576C105.2 15.9573 104.805 15.456 104.272 15.072C103.738 14.6667 103.034 14.464 102.16 14.464C101.285 14.464 100.581 14.6667 100.048 15.072C99.5142 15.456 99.1302 15.968 98.8955 16.608C98.6822 17.248 98.5542 17.952 98.5115 18.72C98.4688 19.232 98.4688 19.7547 98.5115 20.288C98.5542 21.0347 98.6822 21.7387 98.8955 22.4C99.1302 23.04 99.5142 23.552 100.048 23.936C100.581 24.32 101.285 24.512 102.16 24.512ZM121.878 28.32C120.172 28.32 118.732 28.0213 117.558 27.424C116.406 26.8267 115.521 25.984 114.902 24.896C114.305 23.808 113.964 22.5387 113.878 21.088C113.857 20.704 113.846 20.2347 113.846 19.68C113.846 19.1253 113.857 18.656 113.878 18.272C113.964 16.8 114.316 15.5307 114.934 14.464C115.574 13.376 116.47 12.5333 117.622 11.936C118.796 11.3387 120.214 11.04 121.878 11.04C123.542 11.04 124.95 11.3387 126.102 11.936C127.276 12.5333 128.172 13.376 128.79 14.464C129.43 15.5307 129.793 16.8 129.878 18.272C129.9 18.656 129.91 19.1253 129.91 19.68C129.91 20.2347 129.9 20.704 129.878 21.088C129.793 22.5387 129.441 23.808 128.822 24.896C128.225 25.984 127.34 26.8267 126.166 27.424C125.014 28.0213 123.585 28.32 121.878 28.32ZM121.878 25.152C123.009 25.152 123.884 24.8 124.502 24.096C125.121 23.3707 125.462 22.3147 125.526 20.928C125.548 20.608 125.558 20.192 125.558 19.68C125.558 19.168 125.548 18.752 125.526 18.432C125.462 17.0667 125.121 16.0213 124.502 15.296C123.884 14.5707 123.009 14.208 121.878 14.208C120.748 14.208 119.873 14.5707 119.254 15.296C118.636 16.0213 118.294 17.0667 118.23 18.432C118.209 18.752 118.198 19.168 118.198 19.68C118.198 20.192 118.209 20.608 118.23 20.928C118.294 22.3147 118.636 23.3707 119.254 24.096C119.873 24.8 120.748 25.152 121.878 25.152ZM132.19 30.688C132.019 30.688 131.87 30.624 131.742 30.496C131.614 30.368 131.55 30.208 131.55 30.016C131.55 29.9307 131.571 29.8133 131.614 29.664L142.494 3.52C142.579 3.37067 142.697 3.22133 142.846 3.072C142.995 2.92267 143.209 2.848 143.486 2.848H145.566C145.737 2.848 145.886 2.912 146.014 3.04C146.163 3.168 146.238 3.328 146.238 3.52C146.238 3.60533 146.206 3.72267 146.142 3.872L135.23 30.016C135.166 30.144 135.059 30.2827 134.91 30.432C134.761 30.6027 134.537 30.688 134.238 30.688H132.19ZM148.63 28C148.417 28 148.235 27.9253 148.086 27.776C147.937 27.6267 147.862 27.4453 147.862 27.232V12.128C147.862 11.9147 147.937 11.7333 148.086 11.584C148.235 11.4347 148.417 11.36 148.63 11.36H151.254C151.467 11.36 151.649 11.4347 151.798 11.584C151.947 11.7333 152.022 11.9147 152.022 12.128V13.44C152.577 12.7573 153.281 12.192 154.134 11.744C155.009 11.2747 156.086 11.04 157.366 11.04C158.667 11.04 159.798 11.3387 160.758 11.936C161.718 12.512 162.454 13.3333 162.966 14.4C163.499 15.4667 163.766 16.7467 163.766 18.24V27.232C163.766 27.4453 163.691 27.6267 163.542 27.776C163.393 27.9253 163.211 28 162.998 28H160.182C159.969 28 159.787 27.9253 159.638 27.776C159.489 27.6267 159.414 27.4453 159.414 27.232V18.432C159.414 17.1947 159.105 16.224 158.486 15.52C157.889 14.816 157.014 14.464 155.862 14.464C154.753 14.464 153.867 14.816 153.206 15.52C152.545 16.224 152.214 17.1947 152.214 18.432V27.232C152.214 27.4453 152.139 27.6267 151.99 27.776C151.841 27.9253 151.659 28 151.446 28H148.63ZM170.172 28C169.959 28 169.777 27.9253 169.628 27.776C169.479 27.6267 169.404 27.4453 169.404 27.232V14.752H166.812C166.599 14.752 166.417 14.6773 166.268 14.528C166.119 14.3787 166.044 14.1973 166.044 13.984V12.128C166.044 11.9147 166.119 11.7333 166.268 11.584C166.417 11.4347 166.599 11.36 166.812 11.36H169.404V10.048C169.404 8.768 169.639 7.712 170.108 6.88C170.577 6.02667 171.271 5.38667 172.188 4.96C173.105 4.53333 174.268 4.32 175.676 4.32H177.852C178.087 4.32 178.268 4.39467 178.396 4.544C178.545 4.69333 178.62 4.87467 178.62 5.088V6.944C178.62 7.15733 178.545 7.33867 178.396 7.488C178.268 7.63733 178.087 7.712 177.852 7.712H175.804C174.951 7.712 174.364 7.92533 174.044 8.352C173.724 8.77867 173.564 9.39733 173.564 10.208V11.36H177.532C177.767 11.36 177.948 11.4347 178.076 11.584C178.225 11.7333 178.3 11.9147 178.3 12.128V13.984C178.3 14.1973 178.225 14.3787 178.076 14.528C177.948 14.6773 177.767 14.752 177.532 14.752H173.564V27.232C173.564 27.4453 173.489 27.6267 173.34 27.776C173.191 27.9253 173.009 28 172.796 28H170.172ZM188.382 28C187.102 28 186.025 27.776 185.15 27.328C184.275 26.88 183.625 26.2187 183.198 25.344C182.771 24.448 182.558 23.3387 182.558 22.016V14.752H180.03C179.817 14.752 179.635 14.6773 179.486 14.528C179.337 14.3787 179.262 14.1973 179.262 13.984V12.128C179.262 11.9147 179.337 11.7333 179.486 11.584C179.635 11.4347 179.817 11.36 180.03 11.36H182.558V6.048C182.558 5.83467 182.622 5.65333 182.75 5.504C182.899 5.35467 183.091 5.28 183.326 5.28H185.918C186.131 5.28 186.313 5.35467 186.462 5.504C186.611 5.65333 186.686 5.83467 186.686 6.048V11.36H190.686C190.899 11.36 191.081 11.4347 191.23 11.584C191.379 11.7333 191.454 11.9147 191.454 12.128V13.984C191.454 14.1973 191.379 14.3787 191.23 14.528C191.081 14.6773 190.899 14.752 190.686 14.752H186.686V21.696C186.686 22.5707 186.835 23.2533 187.134 23.744C187.454 24.2347 187.998 24.48 188.766 24.48H190.974C191.187 24.48 191.369 24.5547 191.518 24.704C191.667 24.8533 191.742 25.0347 191.742 25.248V27.232C191.742 27.4453 191.667 27.6267 191.518 27.776C191.369 27.9253 191.187 28 190.974 28H188.382Z" fill="white" />
  </g>
  <defs>
    <clipPath id="clip0_707_13">
      <rect width="198" height="36" fill="white" />
    </clipPath>
    <clipPath id="clip1_707_13">
      <rect width="29" height="29" fill="white" transform="translate(7 3)" />
    </clipPath>
  </defs>
</svg>
