<svg width="29" height="29" viewBox="0 0 29 29" fill="none" xmlns="http://www.w3.org/2000/svg">
  <g clip-path="url(#clip0_707_39)">
    <path d="M24.7709 13.2917C24.7709 13.2917 25.9792 12.6875 29.0001 12.6875C27.1876 7.85417 22.6382 7.65902 22.6382 7.65902L22.0467 7.58833L23.5626 3.02083C17.5209 3.02083 15.7084 5.4375 15.7084 5.4375C15.8504 4.25394 16.4745 2.10492 17.5209 1.8125C11.4792 1.8125 10.8751 6.04167 10.8751 6.04167C10.8751 6.04167 9.06258 4.83333 9.06258 1.8125C7.25008 3.02083 6.04175 4.22917 6.04175 7.25C6.04175 9.0625 6.64591 10.2708 6.64591 10.2708L19.9376 27.7917H24.1667C24.1667 25.9792 22.9584 24.7708 22.9584 24.7708C24.7709 24.7708 26.5834 25.9792 26.5834 25.9792C26.5834 21.75 24.7709 19.3333 24.7709 19.3333C27.1876 19.3333 29.0001 20.5417 29.0001 20.5417C29.0001 15.7083 24.7709 13.2917 24.7709 13.2917Z" fill="#FBC02D" />
    <path d="M24.1667 16.9167C24.1667 20.6927 21.1459 24.1667 21.1459 24.1667V27.7192L11.4792 27.7917C11.4792 27.7917 11.4792 26.5833 11.4792 25.375C11.4792 25.375 5.45571 25.375 2.8155 24.1667C2.80946 24.1667 2.80946 24.1606 2.80341 24.1606L2.41675 22.9583H1.81258C1.63737 22.9583 0.604248 21.1458 0.604248 19.3333V18.7292C0.604248 18.125 1.03925 18.125 1.20841 18.125H4.83341V13.2917C4.83341 13.2917 3.70362 12.7479 3.62508 12.0833C3.62508 12.0833 4.18696 10.9837 4.98446 10.2708C7.78175 7.78167 10.8751 7.25 14.5001 7.25C20.5417 7.25 24.1667 12.0833 24.1667 16.9167Z" fill="#673AB7" />
    <path d="M0.604167 19.3334C0.604167 19.3334 1.20833 18.4585 1.20833 18.125C1.20833 17.7915 0.937667 17.5209 0.604167 17.5209C0.270667 17.5209 0 17.823 0 18.2006C0 18.9558 0.604167 19.3334 0.604167 19.3334Z" fill="#673AB7" />
    <path d="M8.45825 17.5208V11.4791L6.04159 12.0833L4.83325 13.8958C4.83325 13.8958 6.04159 14.0003 6.04159 15.1041C6.04159 15.7083 6.04159 17.5208 6.04159 17.5208H8.45825Z" fill="#512DA8" />
    <path d="M10.5989 19.3334H7.25C7.25 19.3334 7.25 18.2247 7.25 17.9939C7.25 17.4605 7.25 16.4443 7.25 15.1042C7.25 11.4792 11.4792 11.4792 11.4792 16.3125C11.4792 18.7292 10.5989 19.3334 10.5989 19.3334Z" fill="white" />
    <path d="M8.38583 17.5209C9.09271 17.5209 9.66667 16.7089 9.66667 15.7084C9.66667 14.7079 9.09271 13.8959 8.38583 13.8959C7.40104 13.8959 7.28625 14.8746 7.28021 14.9689C7.26208 15.1936 7.25 15.4401 7.25 15.7084C7.25 15.9766 7.26208 16.2159 7.27417 16.4334C7.27417 16.4334 7.32552 17.5209 8.38583 17.5209Z" fill="#AB47BC" />
    <path d="M8.45833 15.7083C8.45833 16.3771 8.15625 16.9167 7.78167 16.9167C7.57625 16.9167 7.25 16.7155 7.25 15.7083C7.25 14.7012 7.58229 14.5 7.78167 14.5C8.15625 14.5 8.45833 15.0395 8.45833 15.7083Z" fill="black" />
    <path d="M9.06242 13.8959C8.90218 13.8959 8.74851 13.9595 8.63521 14.0728C8.52191 14.1861 8.45825 14.3398 8.45825 14.5C8.45825 14.6603 8.52191 14.8139 8.63521 14.9273C8.74851 15.0406 8.90218 15.1042 9.06242 15.1042C9.22265 15.1042 9.37633 15.0406 9.48963 14.9273C9.60293 14.8139 9.66659 14.6603 9.66659 14.5C9.66659 14.3398 9.60293 14.1861 9.48963 14.0728C9.37633 13.9595 9.22265 13.8959 9.06242 13.8959Z" fill="white" />
    <path d="M20.2395 14.5C19.9991 14.5 19.7686 14.6273 19.5987 14.8539C19.4287 15.0805 19.3333 15.3879 19.3333 15.7083C19.3333 16.0288 19.4287 16.3361 19.5987 16.5628C19.7686 16.7894 19.9991 16.9167 20.2395 16.9167C20.4799 16.9167 20.7104 16.7894 20.8803 16.5628C21.0503 16.3361 21.1458 16.0288 21.1458 15.7083C21.1458 15.3879 21.0503 15.0805 20.8803 14.8539C20.7104 14.6273 20.4799 14.5 20.2395 14.5ZM22.3541 16.3125C21.7499 16.3125 21.7499 16.8411 21.7499 17.0677C21.7499 17.3698 22.203 18.125 22.3541 18.125C22.5051 18.125 22.9583 17.4453 22.9583 17.0677C22.9583 16.8411 22.9583 16.3125 22.3541 16.3125ZM20.5416 18.125C19.9374 18.125 19.9374 18.6536 19.9374 18.8802C19.9374 19.1823 20.3905 19.9375 20.5416 19.9375C20.6926 19.9375 21.1458 19.2578 21.1458 18.8802C21.1458 18.6536 21.1458 18.125 20.5416 18.125Z" fill="#512DA8" />
    <path d="M13.8958 16.9166C11.4791 16.9166 10.8749 18.7291 9.06242 18.7291C7.552 18.7291 7.24992 17.7474 7.24992 17.5208C6.74 17.5208 6.04158 17.5208 6.04158 17.5208C6.04158 17.5208 6.04158 17.5208 4.83325 16.9166C4.83325 16.9166 3.02075 18.125 1.20825 18.125C1.20825 18.125 3.62492 20.5416 8.45825 20.5416C10.8749 20.5416 12.0833 19.3333 12.0833 19.3333C12.5255 19.6843 13.1254 19.9375 13.8958 19.9375C15.2304 19.9375 16.3124 19.2614 16.3124 18.427C16.3124 17.5927 15.2304 16.9166 13.8958 16.9166Z" fill="#764EBE" />
    <path d="M13.2917 21.75V22.9584C12.5486 22.9584 11.872 22.8134 11.3282 22.5536C8.73633 23.9673 5.68529 24.1667 3.02091 24.1667H2.8155C2.80946 24.1667 2.80946 24.1607 2.80341 24.1607L2.41675 22.9584H3.02091C5.75779 22.9584 8.62154 22.765 11.0201 21.3392L11.3463 21.1459L11.6605 21.3573C12.0411 21.605 12.6332 21.75 13.2917 21.75ZM18.7292 22.9584C18.7292 22.9584 18.1251 25.375 13.8959 25.375V26.5834C14.5001 26.5834 18.7292 26.5834 18.7292 22.9584Z" fill="#4A148C" />
    <path d="M11.4792 25.375H13.8959V27.7917H11.4792V25.375Z" fill="#FBC02D" />
    <path d="M11.4792 25.375H13.8959V26.5833H11.4792V25.375Z" fill="#FF8F00" />
    <path d="M9.13915 12.6874C7.24992 12.6874 7.28375 13.8958 4.83325 13.8958C4.83325 13.8958 6.53519 10.8749 8.98569 10.8749C12.0494 10.8749 14.4999 10.2708 14.4999 10.2708C14.4999 10.2708 13.8958 12.6874 12.0833 12.6874C11.3256 12.6874 10.2556 12.6874 9.13915 12.6874Z" fill="#311B92" />
    <path d="M14.5 10.2708C14.5 10.2708 13.2917 11.4791 9.66667 11.4791C8.45833 11.4791 7.93633 11.8277 7.3376 12.2162C6.612 12.6875 5.75227 13.8958 4.83333 13.8958C4.29744 13.8958 3.625 12.8385 3.625 12.0954C4.22917 12.0954 4.86777 11.609 5.28646 11.2526C6.17277 10.4974 7.25 9.66663 9.0625 9.66663C12.0833 9.66663 14.5 10.2708 14.5 10.2708Z" fill="#7E57C2" />
    <path d="M29 0.0241187C28.7644 0.0482853 27.979 0.410785 27.1815 1.12974C27.1331 1.17204 27.0848 1.21433 27.0425 1.26266C26.7887 1.50433 26.535 1.78829 26.2994 2.11454C26.2812 2.1387 26.2631 2.16287 26.251 2.18704C26.0275 2.49516 25.8342 2.84558 25.671 3.23224C25.5865 3.43162 25.514 3.64308 25.4535 3.86058C25.4052 4.03579 25.3629 4.22308 25.3387 4.41037C25.3146 4.49495 25.3025 4.57954 25.2964 4.6762C25.2783 4.84537 25.2662 4.9662 25.2481 5.06287C25.1998 5.50391 25.2179 5.36495 25.0971 6.37391L25.0608 6.69412C25.0487 6.82099 25.0246 6.96599 24.9883 7.1412C24.9642 7.26808 24.934 7.41308 24.8917 7.56412C24.8252 7.7937 24.7467 8.04141 24.6319 8.31329C24.4687 8.71204 24.2452 9.14704 23.931 9.60016C23.7981 9.79954 23.6531 9.99891 23.4779 10.2043C23.3148 10.4037 23.1275 10.6031 22.9221 10.8025C22.765 10.9595 22.5958 11.1166 22.4146 11.2677C21.8829 11.7208 21.2425 12.1679 20.4752 12.5847C20.2939 12.6875 19.5327 12.8325 18.3727 12.3491C16.6327 11.6181 15.7506 10.2708 15.7144 9.25579C15.6962 9.02016 15.7264 8.83287 15.7989 8.66974C15.95 8.24079 16.4756 7.81787 16.6146 7.70912C16.8019 7.56412 16.965 7.44933 17.1402 7.33454C17.1825 7.29829 17.2248 7.26808 17.2731 7.23787C17.2852 7.22579 17.3033 7.2137 17.3215 7.20162C17.4181 7.13516 17.7565 6.9237 18.1975 6.65787H18.2035C18.7533 6.31954 19.4602 5.9087 19.9858 5.58245C19.9919 5.57641 20.0039 5.57037 20.01 5.57037C20.3906 5.34683 20.6746 5.16558 20.7471 5.1112C20.7954 5.06891 20.8377 5.0387 20.886 5.00245C20.9283 4.9662 20.9706 4.92995 21.0069 4.8937C21.3029 4.62183 21.5265 4.35599 21.7077 4.10224V4.08412C21.895 3.81224 22.0339 3.55245 22.1548 3.29266C22.1971 3.20204 22.2394 3.11141 22.2817 3.02079C22.4206 2.74287 22.5535 2.47099 22.7469 2.19912C22.8133 2.10245 22.8919 1.99974 22.9825 1.90308C23.1154 1.73995 23.2725 1.58287 23.4658 1.42579C23.5444 1.36537 23.6289 1.30495 23.7196 1.23849C23.9854 1.04516 24.2573 0.888077 24.5473 0.749119C24.5654 0.743077 24.5835 0.737035 24.5956 0.724952C24.6983 0.676619 24.801 0.634327 24.9098 0.598077C25.1212 0.507452 25.3387 0.434952 25.5562 0.368494C25.7314 0.314119 25.9067 0.271827 26.0879 0.229535C26.5894 0.120785 27.1029 0.054327 27.6104 0.0241187C28.0877 -0.0121313 28.5469 -0.00608967 29 0.0241187Z" fill="#FF8F00" />
    <path d="M23.4778 10.2043C23.3147 10.4037 23.1274 10.603 22.922 10.8024C22.7649 10.9595 22.5958 11.1166 22.4145 11.2676C19.297 10.6876 17.6899 8.95366 17.1401 7.33449C17.1824 7.29824 17.2247 7.26803 17.2731 7.23782C17.2851 7.22574 17.3033 7.21366 17.3214 7.20158C17.4181 7.13512 17.7564 6.92366 18.1974 6.65783C18.5358 8.11387 20.0764 9.85387 23.4778 10.2043ZM24.9883 7.14116C24.9641 7.26803 24.9339 7.41303 24.8916 7.56408C24.8251 7.79366 24.7466 8.04137 24.6318 8.31324C22.2333 7.9447 20.7712 6.87533 20.0099 5.57033C20.3906 5.34678 20.6745 5.16553 20.747 5.11116C20.7953 5.06887 20.8376 5.03866 20.886 5.00241C20.9283 4.96616 20.9706 4.92991 21.0068 4.89366C21.6774 6.08991 23.0549 6.87532 24.9883 7.14116ZM25.4535 3.86053C25.4051 4.03574 25.3628 4.22303 25.3387 4.41033C25.3145 4.49491 25.3024 4.57949 25.2964 4.67616C25.2783 4.84533 25.2662 4.96616 25.2481 5.06283C23.8947 4.63387 22.9341 3.86658 22.2816 3.02074C22.4206 2.74283 22.5535 2.47095 22.7468 2.19908C22.8133 2.10241 22.8918 1.9997 22.9824 1.90303C23.4476 2.6522 24.2149 3.41949 25.4535 3.86053ZM27.0424 1.26262C26.7887 1.50428 26.5349 1.78824 26.2993 2.11449C26.2812 2.13866 26.2631 2.16283 26.251 2.18699C25.6649 1.75803 25.2299 1.2022 24.9097 0.598034C25.1212 0.507409 25.3387 0.434909 25.5562 0.368451C25.7314 0.314076 25.9066 0.271784 26.0878 0.229492C26.3174 0.616159 26.6316 0.978659 27.0424 1.26262Z" fill="#FF6F00" />
  </g>
  <defs>
    <clipPath id="clip0_707_39">
      <rect width="29" height="29" fill="white" />
    </clipPath>
  </defs>
</svg>
